<svg xmlns="http://www.w3.org/2000/svg" width="116.069" height="102.322" viewBox="0 0 116.069 102.322"><defs><style>.a{fill:#ffd43c;}</style></defs><g transform="translate(-2 -6)"><path class="a" d="M110.815,6H9.254A7.254,7.254,0,0,0,2,13.254V85.8a7.254,7.254,0,0,0,7.254,7.254H63.662l2.067-2.539L69.1,86.378l-.326-.58H9.254V13.254h101.56V44.3a30.5,30.5,0,0,1,7.254,6.565V13.254A7.254,7.254,0,0,0,110.815,6Z" transform="translate(0 0)"/><path class="a" d="M7,12H68.662v5.8H7Z" transform="translate(13.136 15.763)"/><path class="a" d="M7,16H46.9v5.8H7Z" transform="translate(13.136 26.272)"/><path class="a" d="M7,23H43.272v5.8H7Z" transform="translate(13.136 44.662)"/><path class="a" d="M44.3,17.231a23.069,23.069,0,0,0-15.959,39.9l-7.037,8.6L24.57,78.82,37.846,62.643a22.706,22.706,0,0,0,12.876,0L64,78.82l3.264-13.094-7.037-8.6a23.069,23.069,0,0,0-15.959-39.9Zm0,38.738A15.633,15.633,0,1,1,60.153,40.335,15.633,15.633,0,0,1,44.3,55.969Z" transform="translate(50.045 29.502)"/></g></svg>