<svg xmlns="http://www.w3.org/2000/svg" width="117.382" height="103.297" viewBox="0 0 117.382 103.297"><defs><style>.a{fill:#ffd43c;}</style></defs><g transform="translate(-446.701 -326.914)"><g transform="translate(446.701 326.914)"><path class="a" d="M64.359,94.037H9.336A7.336,7.336,0,0,1,2,86.7V13.336A7.336,7.336,0,0,1,9.336,6h102.71a7.336,7.336,0,0,1,7.336,7.336V51.376A30.593,30.593,0,0,0,69.9,87.287l-3.411,4.182ZM20.341,28.009v5.869H82.7V28.009Zm0,20.542h40.35V42.682H20.341Zm0,25.677H57.023V68.359H20.341Z" transform="translate(-2 -6)"/><path class="a" d="M67.823,40.631A23.366,23.366,0,1,0,28.317,57.468L21.2,66.162,24.5,79.4l13.426-16.36a22.963,22.963,0,0,0,13.022,0L64.375,79.4l3.3-13.242L60.56,57.468A23.256,23.256,0,0,0,67.823,40.631Zm-39.4,0a16.013,16.013,0,1,0,.037,0Z" transform="translate(48.936 23.893)"/></g><path class="a" d="M12.534,2.25,9.1,9.2,1.44,10.307l5.547,5.411L5.676,23.352l6.858-3.6,6.858,3.6L18.08,15.718l5.547-5.4L15.963,9.2Z" transform="translate(527.999 376.808)"/></g></svg>