<svg xmlns="http://www.w3.org/2000/svg" width="92.55" height="92.55" viewBox="0 0 92.55 92.55"><defs><style>.a{fill:#ffd43c;}</style></defs><path class="a" d="M48.525,32A16.527,16.527,0,1,0,65.052,48.525,16.574,16.574,0,0,0,48.525,32Zm39.444,12.12A39.815,39.815,0,0,0,52.932,9.081V2.25H44.118V9.081A39.812,39.812,0,0,0,9.081,44.118H2.25v8.814H9.081A39.812,39.812,0,0,0,44.118,87.969V94.8h8.814V87.969A39.812,39.812,0,0,0,87.969,52.932H94.8V44.118ZM48.525,79.375a30.85,30.85,0,1,1,30.85-30.85A30.941,30.941,0,0,1,48.525,79.375Z" transform="translate(-2.25 -2.25)"/></svg>