<svg xmlns="http://www.w3.org/2000/svg" width="326" height="131" viewBox="0 0 326 131"><defs><style>.a,.c,.g{fill:none;}.a,.d{stroke:#fff;}.a{stroke-width:3px;}.b,.d,.e{fill:#ffd43c;}.c{stroke:#ffd43c;stroke-linecap:round;stroke-linejoin:round;stroke-width:2.25px;}.d,.e{stroke-width:4px;}.e{stroke:#3686e0;}.f{stroke:none;}</style></defs><g transform="translate(-1248 -322)"><g class="a" transform="translate(1248 346)"><rect class="f" width="326" height="107" rx="14"/><rect class="g" x="1.5" y="1.5" width="323" height="104" rx="12.5"/></g><path class="b" d="M37.355,42.691H5.336a5.144,5.144,0,0,1-3.773-1.563A5.136,5.136,0,0,1,0,37.355V18.677A5.144,5.144,0,0,1,1.563,14.9a5.136,5.136,0,0,1,3.773-1.563H19.844L11.674,5.128A2.58,2.58,0,0,1,8.8,4.544,2.588,2.588,0,0,1,8,2.647,2.519,2.519,0,0,1,8.8.771,2.625,2.625,0,0,1,10.694,0,2.553,2.553,0,0,1,12.57.771a2.579,2.579,0,0,1,.771,1.9,2.582,2.582,0,0,1-.209,1l8.213,8.172,8.213-8.172a2.582,2.582,0,0,1-.209-1,2.546,2.546,0,0,1,.792-1.9A2.618,2.618,0,0,1,32.04,0a2.56,2.56,0,0,1,1.876.771,2.551,2.551,0,0,1,.771,1.876,2.622,2.622,0,0,1-.771,1.9,2.549,2.549,0,0,1-1.9.792,2.582,2.582,0,0,1-1-.209l-8.171,8.213H37.355a5.336,5.336,0,0,1,5.336,5.336V37.355a5.336,5.336,0,0,1-5.336,5.336Zm-8-16.8q0-6.879-2.668-7.212H5.336A2.245,2.245,0,0,0,4,19.386a3.878,3.878,0,0,0-.792,1.23,7.773,7.773,0,0,0-.4,1.709,12.949,12.949,0,0,0-.146,1.626v6.191q0,1,.083,1.98a19.441,19.441,0,0,0,.333,2.209A5.671,5.671,0,0,0,3.9,36.4a2.054,2.054,0,0,0,1.438.959H26.682a2.263,2.263,0,0,0,1.125-.479,2.5,2.5,0,0,0,.771-1.125q.27-.729.439-1.355a8.245,8.245,0,0,0,.229-1.584q.06-.958.083-1.417t.021-1.251Zm9.339-7.212H33.352a1.334,1.334,0,0,0,0,2.668h5.336a1.334,1.334,0,0,0,0-2.668Zm0,5.336H33.352a1.334,1.334,0,0,0,0,2.668h5.336a1.334,1.334,0,0,0,0-2.668Zm0,5.336H33.352a1.334,1.334,0,0,0,0,2.668h5.336a1.334,1.334,0,0,0,0-2.668Zm0,5.336H33.352a1.334,1.334,0,0,0,0,2.668h5.336a1.334,1.334,0,0,0,0-2.668Z" transform="translate(1395.027 383.791)"/><g transform="translate(1272.274 386.929)"><path class="b" d="M36.936,12.923H31.6V2.25H28.932V12.923H16.925V10.255H14.257v2.668h-4V10.255H7.586v2.668H4.918A2.668,2.668,0,0,0,2.25,15.591V36.936A2.668,2.668,0,0,0,4.918,39.6H36.936A2.668,2.668,0,0,0,39.6,36.936V15.591A2.668,2.668,0,0,0,36.936,12.923ZM4.918,36.936V15.591H36.936V36.936Z" transform="translate(-2.25 -2.25)"/><path class="b" d="M12.086,30.923a5.336,5.336,0,1,1,5.336-5.336A5.336,5.336,0,0,1,12.086,30.923Zm0-8a2.668,2.668,0,1,0,2.668,2.668A2.668,2.668,0,0,0,12.086,22.918Z" transform="translate(-1.414 1.096)"/><path class="b" d="M7.875,15.75h8v2.668h-8Z" transform="translate(-1.205 0.259)"/><path class="b" d="M19.125,18H31.132v2.668H19.125Z" transform="translate(0.886 0.677)"/><path class="b" d="M19.125,22.5H31.132v2.668H19.125Z" transform="translate(0.886 1.514)"/><path class="b" d="M19.125,27H31.132v2.668H19.125Z" transform="translate(0.886 2.35)"/></g><g transform="translate(1332.316 385.883)"><path class="b" d="M34.811,10.472V1.125H7.462v9.347a6.679,6.679,0,0,0-6.337,6.662V33.143h5.67V30.475h-3V17.134a4.007,4.007,0,0,1,4-4H34.477a4.007,4.007,0,0,1,4,4V30.475H34.811v2.668h6.337V17.134A6.679,6.679,0,0,0,34.811,10.472Zm-2.668-.008H10.13V3.793H32.144Z" transform="translate(-1.125 -1.125)"/><path class="b" d="M27.844,14.063h2.668v2.668H27.844Z" transform="translate(3.841 1.28)"/><path class="b" d="M8.679,18.563H5.344v2.668H8.68V37.908h22.68V21.231H34.7V18.563ZM28.69,35.24H11.347V21.231H28.69Z" transform="translate(-0.341 2.116)"/></g><path class="b" d="M35.6,26.682h7.088a3.557,3.557,0,0,1-3.585,3.585H3.585a3.461,3.461,0,0,1-2.544-1.042A3.455,3.455,0,0,1,0,26.682H7.088A3.364,3.364,0,0,1,4.628,25.64,3.464,3.464,0,0,1,3.585,23.1V3.585A3.461,3.461,0,0,1,4.627,1.041,3.361,3.361,0,0,1,7.088,0H35.6a3.364,3.364,0,0,1,2.459,1.042,3.459,3.459,0,0,1,1.042,2.542V23.1a3.461,3.461,0,0,1-1.042,2.544A3.365,3.365,0,0,1,35.6,26.682ZM7.088,3.585V23.1H35.6V3.585ZM21.346,28.432a1.71,1.71,0,1,0-1.251-.5A1.7,1.7,0,0,0,21.346,28.432Z" transform="translate(1506.035 390.067)"/><g transform="translate(1460.406 383.791)"><path class="c" d="M13.3,1.125H27.639a4.3,4.3,0,0,1,4.3,4.3V39.837a4.3,4.3,0,0,1-4.3,4.3H13.3a4.3,4.3,0,0,1-4.3-4.3V5.426a4.3,4.3,0,0,1,4.3-4.3Z" transform="translate(-9 -1.125)"/><path class="c" d="M12.375,1.125h2.151a.718.718,0,0,1,.718.718h0a1.434,1.434,0,0,0,1.434,1.434h5.735a1.434,1.434,0,0,0,1.434-1.434h0a.718.718,0,0,1,.718-.718h2.151" transform="translate(-8.074 -1.125)"/></g><g transform="translate(-267.103 34.897)"><g class="d" transform="translate(1653.103 287.103)"><circle class="f" cx="24.5" cy="24.5" r="24.5"/><circle class="g" cx="24.5" cy="24.5" r="22.5"/></g><path class="e" d="M1660.428,307.3l7.343,7.343,17.827-17.827" transform="translate(4.305 5.537)"/></g></g></svg>